<svg width="34" height="34" viewBox="0 0 34 34" fill="none" xmlns="http://www.w3.org/2000/svg">
<g clip-path="url(#clip0_291_5829)">
<path d="M17 2.39856C8.78475 2.39856 2.125 8.36046 2.125 15.7147C2.125 18.6506 3.19515 21.3578 4.9963 23.5576C5.6559 24.3634 5.95765 25.403 5.75875 26.4247L4.947 30.5871C4.811 31.2858 5.542 31.8324 6.17355 31.5034L11.1146 28.9313C11.8125 28.5684 12.6157 28.4502 13.3833 28.6245C14.5409 28.8871 15.7514 29.0308 17 29.0308C25.2153 29.0308 31.875 23.0689 31.875 15.7147C31.875 8.36046 25.2153 2.39856 17 2.39856Z" fill="white"/>
<path d="M10.8409 14.4753C11.7606 14.4753 12.5052 15.2208 12.5052 16.1396C12.5052 16.5808 12.3301 17.0041 12.0173 17.3169C11.7054 17.6288 11.2821 17.8048 10.8401 17.8048C9.92038 17.8048 9.17578 17.0593 9.17578 16.1405C9.17578 15.2216 9.92123 14.4762 10.8401 14.4762L10.8409 14.4753Z" fill="#333D4B"/>
<path d="M23.1584 17.8039C24.0776 17.8039 24.8227 17.0588 24.8227 16.1396C24.8227 15.2205 24.0776 14.4753 23.1584 14.4753C22.2393 14.4753 21.4941 15.2205 21.4941 16.1396C21.4941 17.0588 22.2393 17.8039 23.1584 17.8039Z" fill="#333D4B"/>
<path d="M16.9993 17.8039C17.9184 17.8039 18.6636 17.0588 18.6636 16.1396C18.6636 15.2205 17.9184 14.4753 16.9993 14.4753C16.0801 14.4753 15.335 15.2205 15.335 16.1396C15.335 17.0588 16.0801 17.8039 16.9993 17.8039Z" fill="#333D4B"/>
</g>
<defs>
<clipPath id="clip0_291_5829">
<rect width="34" height="34" fill="white"/>
</clipPath>
</defs>
</svg>
