<svg width="24" height="24" viewBox="0 0 24 24" fill="current" stroke ="current" xmlns="http://www.w3.org/2000/svg">
<path d="M7.1999 6.11993V7.31993C7.6267 7.31993 8.02138 7.09324 8.23644 6.72457L7.1999 6.11993ZM8.8799 3.23993V2.03993C8.4531 2.03993 8.05842 2.26662 7.84337 2.63528L8.8799 3.23993ZM15.1199 3.23993L16.1564 2.63528C15.9414 2.26662 15.5467 2.03993 15.1199 2.03993V3.23993ZM16.7999 6.11993L15.7634 6.72457C15.9784 7.09324 16.3731 7.31993 16.7999 7.31993V6.11993ZM3.5999 18.3599V8.51993H1.1999V18.3599H3.5999ZM4.7999 7.31993H7.1999V4.91993H4.7999V7.31993ZM8.23644 6.72457L9.91644 3.84457L7.84337 2.63528L6.16337 5.51528L8.23644 6.72457ZM8.8799 4.43993H15.1199V2.03993H8.8799V4.43993ZM14.0834 3.84457L15.7634 6.72457L17.8364 5.51528L16.1564 2.63528L14.0834 3.84457ZM16.7999 7.31993H19.1999V4.91993H16.7999V7.31993ZM20.3999 8.51993V18.3599H22.7999V8.51993H20.3999ZM20.3999 18.3599C20.3999 19.0227 19.8626 19.5599 19.1999 19.5599V21.9599C21.1881 21.9599 22.7999 20.3482 22.7999 18.3599H20.3999ZM19.1999 7.31993C19.8626 7.31993 20.3999 7.85719 20.3999 8.51993H22.7999C22.7999 6.5317 21.1881 4.91993 19.1999 4.91993V7.31993ZM3.5999 8.51993C3.5999 7.85719 4.13716 7.31993 4.7999 7.31993V4.91993C2.81168 4.91993 1.1999 6.5317 1.1999 8.51993H3.5999ZM4.7999 19.5599C4.13716 19.5599 3.5999 19.0227 3.5999 18.3599H1.1999C1.1999 20.3482 2.81168 21.9599 4.7999 21.9599V19.5599ZM14.3999 12.8399C14.3999 14.1654 13.3254 15.2399 11.9999 15.2399V17.6399C14.6509 17.6399 16.7999 15.4909 16.7999 12.8399H14.3999ZM11.9999 15.2399C10.6744 15.2399 9.5999 14.1654 9.5999 12.8399H7.1999C7.1999 15.4909 9.34893 17.6399 11.9999 17.6399V15.2399ZM9.5999 12.8399C9.5999 11.5144 10.6744 10.4399 11.9999 10.4399V8.03993C9.34893 8.03993 7.1999 10.189 7.1999 12.8399H9.5999ZM11.9999 10.4399C13.3254 10.4399 14.3999 11.5144 14.3999 12.8399H16.7999C16.7999 10.189 14.6509 8.03993 11.9999 8.03993V10.4399ZM19.1999 19.5599H4.7999V21.9599H19.1999V19.5599Z" />
</svg>
