<svg width="34" height="34" viewBox="0 0 34 34" fill="none" xmlns="http://www.w3.org/2000/svg">
<g clip-path="url(#clip0_291_5901)">
<path fill-rule="evenodd" clip-rule="evenodd" d="M28.5261 5.14062H5.57784C4.85959 5.14062 4.27734 5.72288 4.27734 6.44113V24.0268H29.8266V6.44113C29.8266 5.72288 29.2444 5.14062 28.5261 5.14062Z" fill="#333D4B"/>
<path d="M29.8275 24.0262H4.2782L1.54035 27.4186C1.0397 28.0391 1.48085 28.9639 2.279 28.9639H31.8276C32.6248 28.9639 33.0669 28.0399 32.5662 27.4186L29.8275 24.0262Z" fill="#C0C7D1"/>
<path d="M21.1157 25.1372H12.9889C12.75 25.1372 12.5239 25.2452 12.3735 25.4313L11.4045 26.6324C11.2336 26.844 11.3841 27.1594 11.6569 27.1594H22.4494C22.7214 27.1594 22.8727 26.844 22.7018 26.6324L21.7328 25.4313C21.5824 25.2452 21.3563 25.1372 21.1174 25.1372H21.1157Z" fill="#E5E9EE"/>
</g>
<defs>
<clipPath id="clip0_291_5901">
<rect width="34" height="34" fill="white"/>
</clipPath>
</defs>
</svg>
