<svg width="34" height="34" viewBox="0 0 34 34" fill="none" xmlns="http://www.w3.org/2000/svg">
<g clip-path="url(#clip0_291_5839)">
<path d="M5.23707 31.5722L25.0531 24.4501L8.70932 8.16235L1.62032 27.9597C0.815367 30.2088 2.98967 32.3797 5.23707 31.5722Z" fill="#EF4452"/>
<path d="M8.80167 3.96234C9.67859 3.96234 10.3895 3.25146 10.3895 2.37454C10.3895 1.49763 9.67859 0.786743 8.80167 0.786743C7.92475 0.786743 7.21387 1.49763 7.21387 2.37454C7.21387 3.25146 7.92475 3.96234 8.80167 3.96234Z" fill="#EDCCF8"/>
<path d="M25.7792 24.0181C27.4821 22.3153 25.1412 17.2135 20.5507 12.623C15.9603 8.03254 10.8585 5.69168 9.15561 7.39457C7.45272 9.09745 9.79358 14.1992 14.3841 18.7897C18.9745 23.3802 24.0763 25.721 25.7792 24.0181Z" fill="#A41926"/>
<path d="M14.5027 11.7358C14.4067 11.7358 14.3081 11.7222 14.2103 11.695C13.6459 11.5343 13.3195 10.9461 13.4802 10.3817C13.9868 8.60777 13.9596 6.73437 13.4011 4.96382C13.2243 4.40367 13.5354 3.80782 14.0947 3.63102C14.654 3.45422 15.2507 3.76447 15.4275 4.32462C16.1118 6.49297 16.1449 8.78966 15.5236 10.9648C15.3901 11.4315 14.966 11.7358 14.5027 11.7358Z" fill="#B44BD7"/>
<path d="M24.9616 14.8383C24.6326 14.8383 24.3079 14.6862 24.1005 14.3989C23.7563 13.9237 23.8625 13.2599 24.3377 12.9148C26.5851 11.2862 29.2464 10.3605 32.0344 10.239C32.6252 10.233 33.1165 10.6682 33.1428 11.2539C33.1683 11.8404 32.7136 12.3359 32.1279 12.3623C29.7564 12.466 27.4946 13.2522 25.5846 14.636C25.3959 14.7729 25.1783 14.8383 24.9624 14.8383H24.9616Z" fill="#EF4452"/>
<path d="M29.2209 20.2009C29.0858 20.2009 28.9481 20.1746 28.8146 20.1193C28.1006 19.8235 27.356 19.5957 26.6012 19.4419C24.2442 18.9608 21.8174 19.1945 19.5836 20.1193C19.0388 20.3429 18.4191 20.0862 18.1956 19.5447C17.9712 19.0024 18.2287 18.3811 18.7702 18.1567C21.3975 17.0687 24.2535 16.7933 27.0262 17.3602C27.9136 17.5413 28.7891 17.809 29.6281 18.1567C30.1704 18.3811 30.4279 19.0024 30.2035 19.5447C30.0344 19.9536 29.6374 20.2009 29.2209 20.2009Z" fill="#7896FF"/>
<path d="M18.1524 14.9343C17.8337 14.9343 17.5175 14.7915 17.3084 14.5186C16.9514 14.0537 17.0389 13.3864 17.5047 13.0294C20.0607 11.0685 21.6995 8.22947 22.1202 5.03517C22.1967 4.45377 22.7314 4.04322 23.3119 4.12057C23.8942 4.19707 24.3039 4.73087 24.2265 5.31227C23.7318 9.06927 21.804 12.4081 18.7976 14.715C18.6046 14.8629 18.3785 14.9343 18.1524 14.9343Z" fill="#4A81EC"/>
<path d="M13.3696 16.7763L13.37 15.1808C13.3701 14.849 13.1011 14.5798 12.7692 14.5797L11.1737 14.5794C10.8418 14.5793 10.5727 14.8483 10.5726 15.1802L10.5722 16.7756C10.5721 17.1075 10.8411 17.3766 11.173 17.3767L12.7685 17.3771C13.1004 17.3772 13.3695 17.1082 13.3696 16.7763Z" fill="white"/>
<path d="M20.0705 0.471609L18.6134 1.20658C18.3104 1.35943 18.1886 1.729 18.3415 2.03204L19.0764 3.48918C19.2293 3.79222 19.5988 3.91397 19.9019 3.76112L21.359 3.02615C21.6621 2.8733 21.7838 2.50373 21.631 2.20069L20.896 0.743551C20.7431 0.44051 20.3736 0.318758 20.0705 0.471609Z" fill="#7896FF"/>
<path d="M31.7333 24.9916L32.2276 23.4363C32.3305 23.1128 32.1516 22.7672 31.8281 22.6644L30.2728 22.17C29.9494 22.0672 29.6038 22.2461 29.501 22.5695L29.0066 24.1248C28.9038 24.4483 29.0826 24.7939 29.4061 24.8967L30.9614 25.3911C31.2849 25.4939 31.6304 25.315 31.7333 24.9916Z" fill="#A8BFFF"/>
<path d="M28.503 8.93656C29.2091 8.93656 29.7814 8.3642 29.7814 7.65816C29.7814 6.95212 29.2091 6.37976 28.503 6.37976C27.797 6.37976 27.2246 6.95212 27.2246 7.65816C27.2246 8.3642 27.797 8.93656 28.503 8.93656Z" fill="#FFC84D"/>
<path d="M2.97762 14.4794C3.68366 14.4794 4.25602 13.907 4.25602 13.201C4.25602 12.495 3.68366 11.9226 2.97762 11.9226C2.27158 11.9226 1.69922 12.495 1.69922 13.201C1.69922 13.907 2.27158 14.4794 2.97762 14.4794Z" fill="#A8BFFF"/>
<path d="M20.8785 31.1504C21.7023 31.1504 22.3702 30.4825 22.3702 29.6586C22.3702 28.8348 21.7023 28.1669 20.8785 28.1669C20.0546 28.1669 19.3867 28.8348 19.3867 29.6586C19.3867 30.4825 20.0546 31.1504 20.8785 31.1504Z" fill="#FFC84D"/>
</g>
<defs>
<clipPath id="clip0_291_5839">
<rect width="34" height="34" fill="white"/>
</clipPath>
</defs>
</svg>
