<svg width="34" height="34" viewBox="0 0 34 34" fill="none" xmlns="http://www.w3.org/2000/svg">
<g clip-path="url(#clip0_291_5871)">
<path d="M24.914 2.95782L22.364 4.50482C22.1175 3.88432 21.48 3.57832 20.885 3.83332C20.2475 4.10532 19.8905 4.90432 20.103 5.61832C20.188 5.92432 20.3665 6.15382 20.5875 6.31532L19.4315 7.72632L19.423 7.73482C19.4145 7.72632 19.406 7.71782 19.406 7.71782C19.2785 7.60732 19.1595 7.49682 19.049 7.37782C19.032 7.36082 19.015 7.33532 18.9895 7.30982C18.862 7.16532 18.7515 7.00382 18.641 6.84232C18.6155 6.79982 18.59 6.74882 18.556 6.70632C18.454 6.51932 18.3605 6.32382 18.2925 6.12832C18.2755 6.07732 18.2585 6.03482 18.25 5.98382C18.199 5.82232 18.1565 5.66082 18.131 5.49082C18.114 5.43132 18.1055 5.37182 18.097 5.31232C18.0715 5.11682 18.063 4.91282 18.0715 4.70032C18.08 4.65782 18.08 4.61532 18.0885 4.57282C18.097 4.47082 18.097 4.36032 18.1225 4.25832C18.131 4.20732 18.148 4.16482 18.1565 4.12232C18.182 3.98632 18.2245 3.85882 18.267 3.73132C18.301 3.62932 18.3265 3.53582 18.369 3.43382C18.4285 3.30632 18.4965 3.17882 18.5645 3.05982C18.607 2.97482 18.6495 2.89832 18.7005 2.82182C18.794 2.69432 18.896 2.56682 18.998 2.44782C19.049 2.38832 19.0915 2.33732 19.151 2.28632C19.2615 2.16732 19.389 2.05682 19.5165 1.96332C19.5845 1.91232 19.644 1.86982 19.7035 1.81882C19.763 1.78482 19.814 1.73382 19.8735 1.69982C19.95 1.65732 20.035 1.62332 20.12 1.58082C20.1965 1.54682 20.273 1.51282 20.358 1.47882C20.494 1.41932 20.6385 1.36832 20.783 1.32582C20.868 1.30032 20.9615 1.28332 21.055 1.25782C21.191 1.23232 21.327 1.21532 21.4715 1.20682C21.5735 1.19832 21.684 1.18982 21.786 1.18982C21.922 1.18982 22.058 1.20682 22.1855 1.21532C22.2535 1.22382 22.313 1.22382 22.381 1.23232C22.4235 1.24082 22.466 1.25782 22.5085 1.26632C22.6615 1.30032 22.806 1.34282 22.942 1.39382C23.044 1.42782 23.1375 1.45332 23.231 1.49582C23.3755 1.55532 23.5115 1.64032 23.6475 1.71682C23.724 1.76782 23.809 1.80182 23.877 1.85282C24.0215 1.95482 24.149 2.07382 24.2765 2.19282C24.336 2.24382 24.404 2.29482 24.455 2.35432C24.5825 2.49032 24.693 2.64332 24.795 2.79632C24.8375 2.85582 24.88 2.89832 24.914 2.95782Z" fill="#FF9000"/>
<path d="M14.6588 18.5997L11.8122 21.9325L11.7314 22.0269L14.2066 25.1353L14.2253 25.1591L16.749 23.5271C17.3193 23.1582 18.035 23.0911 18.664 23.3469L21.7291 24.7027L23.8567 21.3069L20.6071 18.8453L14.6588 18.5997Z" fill="#3E5AF4"/>
<path d="M19.1541 11.4962C18.7121 10.6198 19.0649 9.55224 19.9404 9.11024C20.4801 8.83739 21.0921 8.86884 21.586 9.13659C21.4925 9.03459 21.3956 8.93514 21.2808 8.84674C20.9952 8.62914 20.6408 8.46254 20.2056 8.38519C19.7525 8.30444 19.3828 8.28829 19.0606 8.31549C18.3789 8.37244 17.9335 8.64274 17.5281 9.03459C17.4626 9.09749 17.398 9.16124 17.3334 9.23009C16.7937 9.80554 16.4503 10.5374 16.2794 11.3083L15.953 12.7797L14.6602 18.6005L20.6085 18.8461C20.6085 18.8461 20.9298 17.385 21.291 15.7309L19.1558 11.497L19.1541 11.4962Z" fill="#8595AA"/>
<path d="M11.8115 21.9329L11.6594 22.0748C11.5013 22.2227 11.259 22.227 11.0958 22.0859L9.39411 20.6086L6.62651 23.4569L6.58911 23.4654L8.47611 25.1042C9.31081 25.8293 10.3419 26.1897 11.3721 26.1897C12.3827 26.1897 13.3849 25.8276 14.206 25.1357L11.7308 22.0272L11.8115 21.9329Z" fill="#FFC84D"/>
<path d="M24.9294 2.98357C24.9294 2.97507 24.9209 2.96657 24.9124 2.95807L22.3624 4.50507C22.1159 3.88457 21.4784 3.57857 20.8834 3.83357C20.2459 4.10557 19.8889 4.90457 20.1014 5.61857C20.1864 5.92457 20.3649 6.15407 20.5859 6.31557L19.4299 7.72657L19.4214 7.73507C19.4129 7.72657 19.4044 7.71807 19.4044 7.71807L19.0559 8.31307C19.3789 8.28757 19.7529 8.30457 20.2034 8.38107C20.6369 8.46607 20.9939 8.62757 21.2829 8.84857L21.4529 8.55107C22.1924 8.61057 22.9659 8.45757 23.6544 8.04957C25.4054 7.00407 25.9749 4.73457 24.9294 2.98357ZM24.7084 5.37207C24.6574 5.68657 24.4704 5.91607 24.2919 5.89057C24.1134 5.85657 24.0114 5.57607 24.0624 5.26157C24.1134 4.95557 24.3004 4.71757 24.4789 4.75157C24.6574 4.78557 24.7594 5.05757 24.7084 5.37207Z" fill="#FFC84D"/>
<path d="M22.0407 24.9307C22.334 25.1449 22.5116 25.49 22.5133 25.8546L22.5346 28.8534H26.5313L26.51 25.8266C26.499 24.2031 25.7093 22.6612 24.3978 21.7041L23.8563 21.308L21.7288 24.7037L22.0399 24.9315L22.0407 24.9307Z" fill="#FFC84D"/>
<path d="M17.5266 9.03564C17.4586 9.09514 17.3991 9.16314 17.3311 9.23114C16.7956 9.80914 16.4471 10.5401 16.2771 11.3051L15.9541 12.7756L14.1861 12.9711C13.9566 12.9966 13.7526 13.1241 13.6251 13.3111L12.7581 14.6371C12.9621 15.3171 12.8346 16.0906 12.3501 16.6856C11.5766 17.6376 10.1741 17.7736 9.2306 17.0001C8.2786 16.2266 8.1426 14.8326 8.9161 13.8806C9.0096 13.7701 9.1116 13.6681 9.2221 13.5746C9.2561 13.5066 9.2816 13.4471 9.3241 13.3791L10.6671 11.3561C11.3811 10.2766 12.5201 9.57964 13.8036 9.43514L17.5266 9.03564Z" fill="#FFC84D"/>
<path d="M31.1858 14.2288C31.1858 15.2148 30.5398 16.0393 29.6558 16.3283L26.5873 17.9858C26.0518 18.2748 25.4653 18.4278 24.8788 18.4278C24.5218 18.4278 24.1648 18.3683 23.8078 18.2663C22.8813 17.9773 22.1163 17.3398 21.6658 16.4728L21.2918 15.7333L19.1498 11.4918C18.7078 10.6163 19.0648 9.5538 19.9403 9.1118C20.4758 8.8398 21.0878 8.8653 21.5893 9.1373C21.8953 9.3073 22.1588 9.5623 22.3288 9.8938L24.8278 14.8578C24.8278 14.8578 24.8363 14.8578 24.8533 14.8663C24.8788 14.8748 24.8958 14.8663 24.9043 14.8578L26.7913 13.8378C26.9698 12.8008 27.8793 12.0103 28.9673 12.0103C30.1913 12.0103 31.1858 13.0048 31.1858 14.2288Z" fill="#FFC84D"/>
<path d="M22.5283 28.8533V32.2983C22.5283 32.4981 22.6898 32.6596 22.8896 32.6596H29.1736C29.3734 32.6596 29.5349 32.4981 29.5349 32.2983V31.8427C29.5349 31.1661 29.1898 30.5363 28.6194 30.1725L26.5539 28.8533H22.5283Z" fill="#4E5968"/>
<path d="M9.39556 20.608L9.43296 20.5689L6.96201 18.1677C6.81921 18.0283 6.58971 18.0317 6.45116 18.1753L2.07111 22.682C1.93171 22.8248 1.93511 23.0543 2.07876 23.1929L2.40601 23.5108C2.89136 23.9825 3.58326 24.1738 4.24201 24.0182L6.58971 23.4649L6.62711 23.4564L9.39471 20.608H9.39556Z" fill="#4E5968"/>
<path d="M24.2902 5.88966C24.4687 5.92026 24.6566 5.68991 24.7101 5.37541C24.7637 5.06091 24.6625 4.78211 24.484 4.75151C24.3055 4.72091 24.1177 4.95126 24.0641 5.26576C24.0106 5.58026 24.1117 5.85991 24.2902 5.88966Z" fill="black"/>
</g>
<defs>
<clipPath id="clip0_291_5871">
<rect width="34" height="34" fill="white"/>
</clipPath>
</defs>
</svg>
