<svg width="34" height="34" viewBox="0 0 34 34" fill="none" xmlns="http://www.w3.org/2000/svg">
<path d="M17.4254 6.42077L22.9563 4.07902C23.5845 3.81297 23.5845 2.92302 22.9563 2.65697L17.3047 0.264221C17.3786 0.340721 17.4254 0.444421 17.4254 0.559171V6.42077Z" fill="#4592FB"/>
<path d="M17.4252 6.68632V0.559521C17.4252 0.444771 17.3784 0.341071 17.3045 0.264571C17.2271 0.184671 17.12 0.134521 17.0002 0.134521C16.7656 0.134521 16.5752 0.324921 16.5752 0.559521V6.68632C16.8438 6.54352 17.1566 6.54352 17.4252 6.68632Z" fill="#333D4B"/>
<path d="M21.8225 32.051H28.7662C29.7785 32.051 30.5996 31.2299 30.5996 30.2175V14.6982H21.8225V32.051Z" fill="#D0D5DA"/>
<path d="M3.40063 14.6974V30.2167C3.40063 31.229 4.22173 32.0501 5.23408 32.0501H12.1777V14.6965L3.40063 14.6974Z" fill="#D0D5DA"/>
<path d="M30.6006 13.7782V14.6962H21.8201L17.0006 9.85119L12.1811 14.6962H3.40063V13.7782C3.40063 12.7667 4.22513 11.9422 5.23663 11.9422H11.2631L16.3546 6.83369C16.4141 6.76569 16.4991 6.73169 16.5756 6.68919C16.8476 6.54469 17.1536 6.54469 17.4256 6.68919C17.5021 6.73169 17.5871 6.76569 17.6466 6.83369L22.7381 11.9422H28.7646C29.7761 11.9422 30.6006 12.7667 30.6006 13.7782Z" fill="#4592FB"/>
<path d="M21.8235 14.6973L17.0006 9.85059L12.1777 14.6973V32.0509H21.8235V14.6973ZM19.2931 32.0509H14.709V28.4919C14.709 27.9258 15.168 27.4668 15.7341 27.4668H18.268C18.8341 27.4668 19.2931 27.9258 19.2931 28.4919V32.0509ZM17.0006 20.9864C15.2641 20.9864 13.8565 19.5788 13.8565 17.8431C13.8565 16.1074 15.2641 14.699 17.0006 14.699C18.7372 14.699 20.1448 16.1066 20.1448 17.8431C20.1448 19.5797 18.7372 20.9864 17.0006 20.9864Z" fill="#E5E9EE"/>
<path d="M16.9996 14.6982C15.2631 14.6982 13.8555 16.1058 13.8555 17.8424C13.8555 19.5789 15.2631 20.9857 16.9996 20.9857C18.7362 20.9857 20.1438 19.5781 20.1438 17.8424C20.1438 16.1067 18.7362 14.6982 16.9996 14.6982ZM17.4246 18.275H15.4917C15.2571 18.275 15.0667 18.0846 15.0667 17.85C15.0667 17.6154 15.2571 17.425 15.4917 17.425H16.5746V15.8848C16.5746 15.6502 16.765 15.4598 16.9996 15.4598C17.2342 15.4598 17.4246 15.6502 17.4246 15.8848V18.275Z" fill="white"/>
<path d="M18.2662 27.4658H15.7324C15.1663 27.4658 14.7073 27.9248 14.7073 28.4909V32.0499H19.2913V28.4909C19.2913 27.9248 18.8323 27.4658 18.2662 27.4658Z" fill="#6B7683"/>
<path d="M16.9986 15.4598C16.764 15.4598 16.5736 15.6502 16.5736 15.8848V17.425H15.4907C15.2561 17.425 15.0657 17.6154 15.0657 17.85C15.0657 18.0846 15.2561 18.275 15.4907 18.275H17.4236V15.8848C17.4236 15.6502 17.2332 15.4598 16.9986 15.4598Z" fill="#6B7683"/>
</svg>
