<svg width="91" height="81" viewBox="0 0 91 81" fill="none" xmlns="http://www.w3.org/2000/svg">
<g id="img_person">
<g id="Group">
<path id="Vector" d="M60.5247 7.47408C60.5247 7.44883 60.4995 7.44883 60.4742 7.42358L53.8335 13.1806C52.7982 11.4888 50.8035 10.9081 49.1875 11.9433C47.4705 13.0543 46.8645 15.5541 47.824 17.5236C48.228 18.3568 48.834 18.9628 49.5662 19.2911L46.915 23.9623L46.8897 24.0128L46.814 23.9371L45.9807 25.4268C47.016 25.1743 48.0512 25.1491 49.036 25.4773C50.349 25.9571 51.4347 26.5883 52.3185 27.3206L53.4295 25.3511C55.5252 25.1238 57.5957 24.2906 59.3127 22.8261C63.883 18.9123 64.4385 12.0443 60.5247 7.47408ZM60.0955 16.2358C59.5652 16.2358 59.136 15.4783 59.136 14.5441C59.136 13.6098 59.5652 12.8271 60.0955 12.8271C60.6257 12.8271 61.0802 13.6098 61.0802 14.5441C61.0802 15.4783 60.651 16.2358 60.0955 16.2358Z" fill="#E8F3FF"/>
<g id="Group_2">
<path id="Vector_2" d="M33.8354 53.4796C34.0879 54.3633 34.1636 55.2976 34.0121 56.2823C33.4314 59.8426 30.0731 62.2666 26.5129 61.6858C22.9526 61.1051 20.5286 57.7468 21.1094 54.1866C21.3114 52.9493 21.8669 51.8636 22.6244 50.9798L22.5991 50.9546L32.3709 38.1276L39.8196 45.6268L33.8354 53.4796Z" fill="#E8F3FF"/>
<path id="Vector_3" d="M78.3006 43.834C77.9724 45.9045 76.5584 47.5458 74.7404 48.3033L68.6299 52.5958C65.1706 55.045 60.4236 54.4895 57.6209 51.308L56.1816 49.7425V35.7793L62.7971 42.9755C63.4789 43.7583 64.6656 43.9098 65.5241 43.3038L66.6856 42.4705C66.6856 42.319 66.6856 42.1423 66.7109 41.9655C67.2159 38.7588 70.2459 36.5873 73.4274 37.0923C76.6341 37.6225 78.8056 40.6273 78.3006 43.834Z" fill="#E8F3FF"/>
</g>
</g>
<path id="Vector_4" d="M72.6467 81.3656L56.1484 55.2344H39.6778V55.1207L25.1338 78.2548L35.9913 85.5445V85.552L46.5761 68.7204C47.1821 67.7558 48.586 67.7558 49.192 68.7204L61.7791 88.6578L61.2994 87.875L72.6442 81.3681L72.6467 81.3656Z" fill="#1F87FF"/>
<path id="Vector_5" d="M56.1487 55.2344H56.1866V35.3601C56.1866 35.3601 56.1386 30.4666 52.3208 27.3129C51.4396 26.5857 50.3589 25.9494 49.0282 25.4899C48.046 25.149 47.0158 25.1717 45.9704 25.4166C39.4686 26.9443 32.3506 38.0896 32.3506 38.0896L32.3784 38.1174L39.8195 45.6166L39.6807 55.1207V55.2344H56.1487Z" fill="#1F87FF"/>
<g id="Group_3">
<path id="Vector_6" d="M25.1335 78.2549L19.6795 86.9156C19.3639 87.4181 19.5154 88.0797 20.0153 88.3953L35.8142 98.3413C36.3167 98.6569 36.9783 98.5054 37.2939 98.0054L38.016 96.8591C39.0866 95.1572 39.2154 93.0287 38.3594 91.2107L35.996 85.5521V85.5446L25.1335 78.2549Z" fill="#1F87FF"/>
</g>
<path id="Vector_7" d="M46.9015 23.9673L49.5553 19.2986C48.8432 18.9552 48.217 18.3644 47.813 17.5286C46.8535 15.549 47.4696 13.0492 49.1917 11.9458C50.8001 10.9131 52.7923 11.4837 53.8301 13.178L60.4658 7.41092L60.4734 7.40587C60.3471 7.25942 60.1855 7.15337 60.0517 7.01702C59.6628 6.61554 59.2715 6.21912 58.8296 5.88329C58.6427 5.74189 58.4357 5.64089 58.2438 5.51212C57.8145 5.22679 57.3828 4.94904 56.9182 4.72937C56.6783 4.61574 56.4258 4.54252 56.1809 4.44657C55.7415 4.27487 55.2996 4.11327 54.8426 4.00217C54.5573 3.93147 54.2694 3.89612 53.9791 3.85067C53.5372 3.77997 53.0953 3.72442 52.6433 3.70674C52.512 3.70169 52.3858 3.66382 52.2545 3.66382C52.0626 3.66382 51.8833 3.71179 51.6939 3.72189C51.295 3.74209 50.8986 3.77997 50.5097 3.84309C50.2017 3.89359 49.9012 3.95924 49.6007 4.03499C49.1992 4.13852 48.8053 4.25719 48.4215 4.40617C48.1589 4.50717 47.9064 4.61574 47.6565 4.73442C47.255 4.92379 46.8661 5.13337 46.4924 5.37072C46.2753 5.50959 46.0682 5.65604 45.8612 5.80754C45.4875 6.08277 45.1239 6.37567 44.7881 6.69634C44.6214 6.85542 44.4674 7.02459 44.3083 7.19629C43.9801 7.54979 43.667 7.91592 43.3892 8.30982C43.263 8.48909 43.1544 8.67847 43.0357 8.86784C42.7908 9.26427 42.5585 9.67079 42.3666 10.0975C42.2555 10.3424 42.1696 10.5975 42.0762 10.85C41.9323 11.2388 41.801 11.6327 41.705 12.0392C41.6318 12.3422 41.5889 12.6503 41.5409 12.9634C41.4828 13.3497 41.4374 13.7411 41.4222 14.14C41.4172 14.2789 41.3818 14.4077 41.3818 14.5491C41.3818 14.8672 41.4172 15.1803 41.445 15.4934C41.4551 15.6172 41.4551 15.7459 41.4702 15.8697C41.5434 16.4731 41.6747 17.064 41.8464 17.6397C41.8944 17.8038 41.9575 17.9654 42.0156 18.127C42.1823 18.6017 42.3792 19.0613 42.6065 19.5057C42.6721 19.6344 42.7302 19.7683 42.8009 19.8945C43.1089 20.4399 43.4725 20.955 43.8715 21.4398C43.97 21.561 44.0785 21.6772 44.1821 21.7933C44.5633 22.22 44.9749 22.619 45.4244 22.9851C45.4951 23.0432 45.5557 23.1063 45.6289 23.1619C46.0001 23.4472 46.3914 23.7073 46.803 23.9471C46.8308 23.9623 46.856 23.985 46.8838 24.0002L46.9015 23.9673Z" fill="#1F87FF"/>
<path id="Vector_8" d="M60.1048 16.2383C60.6375 16.2383 61.0693 15.4758 61.0693 14.5365C61.0693 13.5972 60.635 12.8372 60.1022 12.8372C59.5695 12.8372 59.1377 13.5997 59.1377 14.539C59.1377 15.4783 59.572 16.2383 60.1048 16.2383Z" fill="#1F87FF"/>
</g>
</svg>
