<svg width="34" height="34" viewBox="0 0 34 34" fill="none" xmlns="http://www.w3.org/2000/svg">
<g clip-path="url(#clip0_291_5821)">
<path d="M25.6334 30.6484L24.0779 17.5006H25.2849C26.1927 17.5006 26.9568 18.1798 27.0639 19.0816L28.3933 30.322C28.4911 31.1482 27.8451 31.875 27.0129 31.875C26.3083 31.875 25.7167 31.348 25.6334 30.6484Z" fill="#6E4944"/>
<path d="M11.2373 30.6484L12.7928 17.5006H9.99373L8.47733 30.322C8.37958 31.1482 9.02558 31.875 9.85773 31.875C10.5624 31.875 11.1548 31.348 11.2381 30.6484H11.2373Z" fill="#6E4944"/>
<path d="M23.6367 16.0785H13.8957C13.0559 16.0785 12.3215 15.515 12.1039 14.7041L9.14248 3.65406C8.93168 2.84486 8.25678 2.19376 7.42293 2.13086C6.20233 2.03821 5.37273 3.13301 5.65153 4.20061L9.74428 19.5193H27.0775C27.0775 17.6187 25.5364 16.0777 23.6358 16.0777L23.6367 16.0785Z" fill="#956759"/>
</g>
<defs>
<clipPath id="clip0_291_5821">
<rect width="34" height="34" fill="white"/>
</clipPath>
</defs>
</svg>
