<svg width="70" height="69" viewBox="0 0 70 69" fill="none" xmlns="http://www.w3.org/2000/svg">
<g id="Group">
<path id="Vector" d="M35 0C15.67 0 0 14.028 0 31.332C0 38.24 2.518 44.61 6.756 49.786C8.308 51.682 9.018 54.128 8.55 56.532L6.64 66.326C6.32 67.97 8.04 69.256 9.526 68.482L21.152 62.43C22.794 61.576 24.684 61.298 26.49 61.708C29.214 62.326 32.062 62.664 35 62.664C54.33 62.664 70 48.636 70 31.332C70 14.028 54.33 0 35 0Z" fill="#C6C6C6"/>
<g id="Group_2">
<path id="Vector_2" d="M20.5078 28.4164C22.6718 28.4164 24.4238 30.1704 24.4238 32.3324C24.4238 33.3704 24.0118 34.3664 23.2758 35.1024C22.5418 35.8364 21.5458 36.2504 20.5058 36.2504C18.3418 36.2504 16.5898 34.4964 16.5898 32.3344C16.5898 30.1724 18.3438 28.4184 20.5058 28.4184L20.5078 28.4164Z" fill="#F4F4F4"/>
<path id="Vector_3" d="M49.4912 36.2483C51.6539 36.2483 53.4072 34.495 53.4072 32.3323C53.4072 30.1695 51.6539 28.4163 49.4912 28.4163C47.3284 28.4163 45.5752 30.1695 45.5752 32.3323C45.5752 34.495 47.3284 36.2483 49.4912 36.2483Z" fill="#F4F4F4"/>
<path id="Vector_4" d="M35 36.2485C37.1627 36.2485 38.916 34.4953 38.916 32.3325C38.916 30.1698 37.1627 28.4165 35 28.4165C32.8372 28.4165 31.084 30.1698 31.084 32.3325C31.084 34.4953 32.8372 36.2485 35 36.2485Z" fill="#F4F4F4"/>
</g>
</g>
</svg>
