<svg width="62" height="18" viewBox="0 0 62 18" fill = "currentColor" stroke = "current"  stroke-width ="0" xmlns="http://www.w3.org/2000/svg">
<path d="M51.4456 17.318C50.3001 17.318 49.2183 17.0453 48.2001 16.4998C47.1819 15.9362 46.3547 15.1271 45.7183 14.0726C45.1001 12.9998 44.791 11.7089 44.791 10.1998V0.408936H49.5365V9.57257C49.5365 10.4817 49.8092 11.2908 50.3547 11.9998C50.9183 12.7089 51.7001 13.0635 52.7001 13.0635C53.5183 13.0635 54.2456 12.7726 54.8819 12.1908C55.5365 11.5908 55.8637 10.7362 55.8637 9.62712V0.408936H60.6092V16.7726H56.3001V15.0544C55.7183 15.7817 55.0001 16.3453 54.1456 16.7453C53.3092 17.1271 52.4092 17.318 51.4456 17.318Z" />
<path d="M19.3193 17.3183V0.954634H23.5739V2.75463C24.1557 1.991 24.8739 1.40918 25.7284 1.00918C26.583 0.609178 27.5012 0.40918 28.483 0.40918C29.6466 0.40918 30.7284 0.690996 31.7284 1.25463C32.7466 1.80009 33.5648 2.60918 34.183 3.68191C34.8193 4.73645 35.1375 6.01827 35.1375 7.52736V17.3183H30.3921V8.15463C30.3921 7.24554 30.1193 6.43645 29.5739 5.72736C29.0284 5.01827 28.2466 4.66372 27.2284 4.66372C26.4102 4.66372 25.6739 4.94554 25.0193 5.50918C24.383 6.05463 24.0648 6.91827 24.0648 8.10009V17.3183H19.3193Z"/>
<path d="M8.97894 17.8637C7.36076 17.8637 5.87894 17.4728 4.53349 16.691C3.18803 15.9092 2.11531 14.8546 1.31531 13.5274C0.533487 12.2001 0.142578 10.7365 0.142578 9.13645C0.142578 7.51827 0.533487 6.05463 1.31531 4.74554C2.11531 3.41827 3.18803 2.36372 4.53349 1.58191C5.87894 0.800089 7.36076 0.40918 8.97894 0.40918C10.6153 0.40918 12.0971 0.800089 13.4244 1.58191C14.7699 2.36372 15.8335 3.41827 16.6153 4.74554C17.4153 6.05463 17.8153 7.51827 17.8153 9.13645C17.8153 10.7365 17.4153 12.2001 16.6153 13.5274C15.8335 14.8546 14.7699 15.9092 13.4244 16.691C12.0971 17.4728 10.6153 17.8637 8.97894 17.8637ZM8.97894 13.6092C9.79712 13.6092 10.5335 13.4092 11.188 13.0092C11.8608 12.6092 12.388 12.0728 12.7699 11.4001C13.1699 10.7092 13.3699 9.95463 13.3699 9.13645C13.3699 8.30009 13.1699 7.54554 12.7699 6.87282C12.388 6.20009 11.8608 5.66372 11.188 5.26372C10.5335 4.86372 9.79712 4.66372 8.97894 4.66372C8.16076 4.66372 7.41531 4.86372 6.74258 5.26372C6.08803 5.66372 5.56076 6.20009 5.16076 6.87282C4.77894 7.54554 4.58803 8.30009 4.58803 9.13645C4.58803 9.95463 4.77894 10.7092 5.16076 11.4001C5.56076 12.0728 6.08803 12.6092 6.74258 13.0092C7.41531 13.4092 8.16076 13.6092 8.97894 13.6092Z"/>
<rect x="37.1003" y="0.408936" width="5.72727" height="5.72727"/>
<rect x="37.1001" y="11.5911" width="5.72727" height="5.72727" />
</svg>
