<svg width="90" height="93" viewBox="0 0 90 93" fill="none" xmlns="http://www.w3.org/2000/svg">
<g id="img_school" filter="url(#filter0_d_581_7020)">
<path id="Vector" d="M58.0221 32.3209L76.1717 24.6366C78.2329 23.7635 78.2329 20.8432 76.1717 19.9701L57.626 12.1184C57.8686 12.3694 58.0221 12.7097 58.0221 13.0863V32.3209Z" fill="#1F87FF"/>
<path id="Vector_2" d="M58.0217 33.1936V13.0887C58.0217 12.7122 57.8683 12.3719 57.6256 12.1208C57.3718 11.8587 57.0203 11.6941 56.627 11.6941C55.8572 11.6941 55.2324 12.3189 55.2324 13.0887V33.1936C56.1138 32.725 57.1403 32.725 58.0217 33.1936Z" fill="#0158BB"/>
<g id="Group">
<path id="Vector_3" d="M72.4512 116.426H95.2365C98.5585 116.426 101.253 113.732 101.253 110.41V59.4836H72.4512V116.426Z" fill="#B6D8FF"/>
<path id="Vector_4" d="M12 59.4798V110.406C12 113.728 14.6944 116.422 18.0164 116.422H40.8018V59.4771L12 59.4798Z" fill="#B6D8FF"/>
</g>
<path id="Vector_5" d="M101.256 56.4656V59.478H72.443L56.628 43.5793L40.8129 59.478H12V56.4656C12 53.1464 14.7056 50.4408 18.0248 50.4408H37.8005L54.5081 33.6775C54.7034 33.4543 54.9823 33.3427 55.2334 33.2033C56.1259 32.7291 57.13 32.7291 58.0226 33.2033C58.2736 33.3427 58.5526 33.4543 58.7478 33.6775L75.4554 50.4408H95.2312C98.5504 50.4408 101.256 53.1464 101.256 56.4656Z" fill="#1F87FF"/>
<path id="Vector_6" d="M72.4551 59.4812L56.6289 43.5769L40.8027 59.4812V116.426H72.4551V59.4812ZM64.1515 116.426H49.1091V104.748C49.1091 102.89 50.6153 101.384 52.4729 101.384H60.7877C62.6453 101.384 64.1515 102.89 64.1515 104.748V116.426ZM56.6289 80.1189C50.9305 80.1189 46.3115 75.4999 46.3115 69.8042C46.3115 64.1086 50.9305 59.4868 56.6289 59.4868C62.3274 59.4868 66.9464 64.1058 66.9464 69.8042C66.9464 75.5026 62.3274 80.1189 56.6289 80.1189Z" fill="#B6D8FF"/>
<path id="Vector_7" d="M56.626 59.4841C50.9276 59.4841 46.3086 64.1031 46.3086 69.8016C46.3086 75.5 50.9276 80.1162 56.626 80.1162C62.3245 80.1162 66.9435 75.4972 66.9435 69.8016C66.9435 64.1059 62.3245 59.4841 56.626 59.4841ZM58.0206 71.2213H51.6779C50.9081 71.2213 50.2833 70.5965 50.2833 69.8267C50.2833 69.0568 50.9081 68.432 51.6779 68.432H55.2314V63.3779C55.2314 62.6081 55.8562 61.9833 56.626 61.9833C57.3959 61.9833 58.0206 62.6081 58.0206 63.3779V71.2213Z" fill="#E8F3FF"/>
<g id="Group_2">
<path id="Vector_8" d="M56.6218 61.9819C55.852 61.9819 55.2272 62.6067 55.2272 63.3766V68.4307H51.6737C50.9038 68.4307 50.2791 69.0555 50.2791 69.8253C50.2791 70.5951 50.9038 71.2199 51.6737 71.2199H58.0164V63.3766C58.0164 62.6067 57.3916 61.9819 56.6218 61.9819Z" fill="#1F87FF"/>
</g>
</g>
<defs>
<filter id="filter0_d_581_7020" x="0.508659" y="0.202751" width="112.239" height="127.715" filterUnits="userSpaceOnUse" color-interpolation-filters="sRGB">
<feFlood flood-opacity="0" result="BackgroundImageFix"/>
<feColorMatrix in="SourceAlpha" type="matrix" values="0 0 0 0 0 0 0 0 0 0 0 0 0 0 0 0 0 0 127 0" result="hardAlpha"/>
<feOffset/>
<feGaussianBlur stdDeviation="5.74567"/>
<feComposite in2="hardAlpha" operator="out"/>
<feColorMatrix type="matrix" values="0 0 0 0 0 0 0 0 0 0 0 0 0 0 0 0 0 0 0.04 0"/>
<feBlend mode="normal" in2="BackgroundImageFix" result="effect1_dropShadow_581_7020"/>
<feBlend mode="normal" in="SourceGraphic" in2="effect1_dropShadow_581_7020" result="shape"/>
</filter>
</defs>
</svg>
