<svg width="34" height="34" viewBox="0 0 34 34" fill="none" xmlns="http://www.w3.org/2000/svg">
<g clip-path="url(#clip0_291_5890)">
<path d="M17.0006 1.19702C19.0058 1.19702 18.9675 1.93142 20.3182 2.00282C21.6688 2.07507 22.3752 1.65007 23.2872 1.78437C23.9213 1.87787 24.3982 2.16092 24.728 2.43887C25.0884 2.74317 25.1479 3.27272 24.8606 3.64672L21.719 7.72842C21.4393 8.06077 21.4733 8.55292 21.8014 8.83682C26.6906 13.0724 32.7256 18.1664 32.7256 22.7403C32.7256 30.426 26.4169 32.8043 17.0006 32.8043C7.58433 32.8043 1.27563 30.426 1.27563 22.7403C1.27563 18.1673 7.31064 13.0724 12.1998 8.83682C12.5279 8.55292 12.5619 8.05992 12.2823 7.72842L9.14069 3.64672C8.85338 3.27272 8.91289 2.74317 9.27329 2.43887C9.60309 2.16092 10.0799 1.87787 10.714 1.78437C11.6261 1.65007 12.3333 2.07507 13.6831 2.00282C15.0337 1.93057 14.9955 1.19702 17.0006 1.19702Z" fill="#FFC522"/>
<path d="M17.0714 9.67737C15.4215 9.67737 13.7683 9.52267 12.155 9.21497C11.6407 9.11637 11.3041 8.61997 11.4019 8.10572C11.5005 7.59147 11.9977 7.25232 12.5111 7.35177C15.5023 7.92212 18.6464 7.92467 21.6036 7.35177C22.117 7.24892 22.6151 7.58807 22.7145 8.10232C22.814 8.61657 22.4774 9.11382 21.9631 9.21327C20.3677 9.52182 18.7221 9.67652 17.0714 9.67652V9.67737Z" fill="#99452E"/>
<path d="M17.2043 27.1361C15.0215 27.1361 13.3598 25.8441 12.6645 24.9576C12.259 24.4399 12.35 23.6919 12.8676 23.2865C13.3827 22.8836 14.1256 22.9711 14.5328 23.4828C14.6977 23.686 16.1903 25.4217 18.5303 24.4867C19.099 24.2597 19.3582 23.8483 19.32 23.5585C19.2622 23.1156 18.5244 22.5861 17.008 22.4042C13.268 21.9554 12.7044 19.8355 12.6203 19.1954C12.4316 17.7504 13.3428 16.3649 14.8881 15.7478C18.0144 14.5017 20.2958 16.1762 21.1313 16.9539C21.6124 17.401 21.6388 18.155 21.1908 18.6361C20.742 19.1163 19.9906 19.1436 19.5087 18.6956C18.7445 17.9833 17.4746 17.2787 15.7695 17.9595C15.2009 18.1865 14.9416 18.5979 14.9799 18.8877C15.0377 19.3306 15.7746 19.8601 17.291 20.042C21.031 20.4908 21.5946 22.6107 21.6787 23.2499C21.8683 24.6949 20.9562 26.0804 19.4118 26.6975C18.6332 27.0078 17.892 27.137 17.2035 27.137L17.2043 27.1361Z" fill="#FFF3CC"/>
<path d="M17.1509 17.6835C16.4939 17.6835 15.9609 17.1514 15.9609 16.4944V14.7978C15.9609 14.1407 16.4939 13.6086 17.1509 13.6086C17.808 13.6086 18.3409 14.1407 18.3409 14.7978V16.4944C18.3409 17.1514 17.808 17.6835 17.1509 17.6835Z" fill="#FFF3CC"/>
<path d="M17.1509 28.8381C16.4939 28.8381 15.9609 28.306 15.9609 27.6489V25.9523C15.9609 25.2953 16.4939 24.7632 17.1509 24.7632C17.808 24.7632 18.3409 25.2953 18.3409 25.9523V27.6489C18.3409 28.306 17.808 28.8381 17.1509 28.8381Z" fill="#FFF3CC"/>
</g>
<defs>
<clipPath id="clip0_291_5890">
<rect width="34" height="34" fill="white"/>
</clipPath>
</defs>
</svg>
