<svg width="34" height="34" viewBox="0 0 34 34" fill="none" xmlns="http://www.w3.org/2000/svg">
<g clip-path="url(#clip0_291_5909)">
<path d="M9.36618 8.90924C4.89803 8.90924 1.27588 12.5314 1.27588 16.9995C1.27588 21.4677 4.89803 25.0898 9.36618 25.0898H24.6356C29.1037 25.0898 32.7259 21.4677 32.7259 16.9995C32.7259 12.5314 29.1037 8.90924 24.6356 8.90924H9.36618Z" fill="#333D4B"/>
<path d="M8.42255 20.5457C10.3806 20.5457 11.9679 18.9583 11.9679 17.0003C11.9679 15.0423 10.3806 13.455 8.42255 13.455C6.4645 13.455 4.8772 15.0423 4.8772 17.0003C4.8772 18.9583 6.4645 20.5457 8.42255 20.5457Z" fill="#EF4452"/>
<path d="M16.8757 20.5457C18.8337 20.5457 20.421 18.9583 20.421 17.0003C20.421 15.0423 18.8337 13.455 16.8757 13.455C14.9176 13.455 13.3303 15.0423 13.3303 17.0003C13.3303 18.9583 14.9176 20.5457 16.8757 20.5457Z" fill="#FFCD00"/>
<path d="M25.3295 20.5457C27.2876 20.5457 28.8749 18.9583 28.8749 17.0003C28.8749 15.0423 27.2876 13.455 25.3295 13.455C23.3715 13.455 21.7842 15.0423 21.7842 17.0003C21.7842 18.9583 23.3715 20.5457 25.3295 20.5457Z" fill="#23B169"/>
</g>
<defs>
<clipPath id="clip0_291_5909">
<rect width="34" height="34" fill="white"/>
</clipPath>
</defs>
</svg>
